HIERARCHY
ROOT Base
{
	OFFSET 0.0 0.0 0.0
	CHANNELS 0
	JOINT DoorTop
	{
		OFFSET 0.375 0.0 0.53125
		CHANNELS 3 Xrotation Yrotation Zrotation
		End Site
		{
			OFFSET -0.0 0.0 -0.0
		}
	}
	JOINT DoorBottom 
	{
		OFFSET 0.375 0.0 0.09375
		CHANNELS 3 Xrotation Yrotation Zrotation
		End Site
		{
			OFFSET -0.0 0.0 -0.0
		}
	}
}
MOTION
Frames: 21
Frame Time: 0.041667
 0.0 0.00 0.0	 0.0 0.00 0.0	
 0.0 6.00 0.0	 0.0 6.00 0.0
 0.0 12.0 0.0	 0.0 12.0 0.0
 0.0 18.0 0.0	 0.0 18.0 0.0
 0.0 24.0 0.0 	 0.0 24.0 0.0 
 0.0 30.0 0.0 	 0.0 30.0 0.0 
 0.0 36.0 0.0 	 0.0 36.0 0.0 
 0.0 42.0 0.0 	 0.0 42.0 0.0 
 0.0 48.0 0.0 	 0.0 48.0 0.0 
 0.0 54.0 0.0 	 0.0 54.0 0.0 
 0.0 60.0 0.0 	 0.0 60.0 0.0 
 0.0 54.0 0.0 	 0.0 54.0 0.0 
 0.0 48.0 0.0 	 0.0 48.0 0.0 
 0.0 42.0 0.0	 0.0 42.0 0.0
 0.0 36.0 0.0 	 0.0 36.0 0.0 
 0.0 30.0 0.0 	 0.0 30.0 0.0 		
 0.0 24.0 0.0	 0.0 24.0 0.0
 0.0 18.0 0.0 	 0.0 18.0 0.0 
 0.0 12.0 0.0 	 0.0 12.0 0.0 
 0.0 6.00 0.0 	 0.0 6.00 0.0 
 0.0 0.00 0.0	 0.0 0.00 0.0
